# xmcd
#
# Track frame offsets: 
#        150
#        5477
#        24300
#        30770
#        35285
#        47577
#        50110
#        74812
#        78395
#        96532
#        99537
#        112467
#        113410
#        129022
#        150905
#        152805
#        170752
#        191990
#        194532
#        215195
#        216212
#        232565
#        235037
#        253052
#        254312
#        273042
#        276615
#        290800
#        294747
#        310705
#        316282
#
# Disc length: 4399 seconds
#
# Revision: 1
# Processed by: cddbd v1.5.2PL0 Copyright (c) Steve Scherf et al.
# Submitted via: ExactAudioCopyFreeDBPlugin 1.0
#
DISCID=c7112d1f
DTITLE=Souverains Anonymes - Libre à vous
DYEAR=1900
DGENRE=Québécois
TTITLE0=introduction d' Albert Jacquard
TTITLE1=Claire Pelletier - Les statues
TTITLE2=Pol Pelletier - Libre à vous
TTITLE3=Texte - Au coeur de la brique
TTITLE4=Carleton Williams - I am busted
TTITLE5=Antoine Fleurentin - Une femme dans une prison
TTITLE6=Karen Young et Michel Pothel - Femmes , femmes
TTITLE7=Patrick Josué and M. Lotfi - Vous êtes à Bordeaux
TTITLE8=French B - Cellule A-D-2-10
TTITLE9=Yazit Abdelmalek - Abdul chante Marie Philippe
TTITLE10=Marie Philippe - Quand on est seul ici
TTITLE11=Sylvain Simard - Salut Henri Band
TTITLE12=Robert Simard and Henri Band - La légende de Jos Cadenas
TTITLE13=René Flageole - Petite fille
TTITLE14=Ronald T. - Seigneur
TTITLE15=Éric Lapointe - Mal d'avoir fait mal
TTITLE16=Lou Babin - Il faut que je te dise
TTITLE17=Mohamed Jean Wilder au bout du fil - Message téléphonique
TTITLE18=Mohamed Jean Wilder - À quoi ça sert
TTITLE19=Meus Kesner - La perle des Antilles
TTITLE20=Sélim Bichara - Coem serré
TTITLE21=Eddy Poteau - Je quitte ma cellule 1
TTITLE22=Sylvie Tremblay - Quel côté des barreaux
TTITLE23=Ronald T. - Dans le quartier de Bordeaux
TTITLE24=Michel Rivard - Y'a pas d'poésie en prison
TTITLE25=Improvisation Collective - Ambiance carcérale
TTITLE26=Années de malheur
TTITLE27=Patrick F. and Les Souverains Anonymes - Je quitte ma cellule 2
TTITLE28=Richard Séguin - Libre à vous
TTITLE29=Ronald T. - Épilogue
TTITLE30=Luck Mervil and les Souverains Anonymes - Souverains Anonymes
EXTD=
EXTT0=
EXTT1=
EXTT2=
EXTT3=
EXTT4=
EXTT5=
EXTT6=
EXTT7=
EXTT8=
EXTT9=
EXTT10=
EXTT11=
EXTT12=
EXTT13=
EXTT14=
EXTT15=
EXTT16=
EXTT17=
EXTT18=
EXTT19=
EXTT20=
EXTT21=
EXTT22=
EXTT23=
EXTT24=
EXTT25=
EXTT26=
EXTT27=
EXTT28=
EXTT29=
EXTT30=
PLAYORDER=
